<?xml version="1.0" encoding="UTF-8"?><svg width="88" height="31" version="1.1" xmlns="http://www.w3.org/2000/svg"><rect width="88" height="31" fill="#ff3"/><g stroke="#000" stroke-linecap="round" stroke-linejoin="round" fill="none"><path d="m19.8 23.6c3.77 2.83 7.08 2.53 8.96-.836 1.46-2.61 4.49-1.57 4.71.627" stroke-width="2"/><g fill="#fff"><path d="m11.2 28.8c.977.709 2.92.57 2.96-1.81m4.12 1.81c-.977.709-2.92.57-2.96-1.81m10.1-15.2-.0252-10.8-7.73 3.88m-13.4 6.89.0252-10.8 7.73 3.88"/><path d="m23.4 8.96.11-4.66-3.38 1.78m-13.8 2.88-.11-4.66 3.38 1.78" fill="#fcc"/><circle cx="14.8" cy="16.5" r="11.6"/><path d="m21.6 24.5c0 2.14-.395 5.19-2.37 5.23-1.65.0388-2.44-1.72-2.4-2.93m-9-2.3c0 2.14.395 5.19 2.37 5.23 1.65.0388 2.44-1.72 2.4-2.93"/></g><path d="m22.5 22.5-1.76-.705m2.29-4.89-1.98.529m-14.1 5.07 1.76-.705m-2.29-4.89 1.98.529m2.2 3.55c.441 2.14 3.44 2.31 3.97.0661.617 2.34 3.46 2.09 3.97-.0882m-1.59-10.8v6.35m-4.76-6.35v6.35m72.1 12c-2.59-3.1-3.62-4.65-6.21-7.76m-.517 7.76 7.24-7.24m-9.84 0c0 2.07-.517 5.17-.517 7.24m.517-9.31.517-.517m-3.61 9.83-2.07-7.24-3.1 7.24-2.07-7.76-3.1 7.76m-5.69 0c-2.07 0-3.62-1.55-3.62-3.62 0-2.07 1.55-4.14 3.62-4.14 2.07 0 3.62 1.55 3.62 3.62s-1.55 4.14-3.62 4.14m-5.69-6.21c-1.03-1.03-2.07-1.55-3.62-1.55-2.07 0-3.62 1.55-3.62 3.62s1.55 4.14 3.62 4.14c1.55 0 2.59-.517 3.62-1.55m32.1-24.4c0 4.65-.517 10.3-.517 12.9m2.59-7.24h-4.65m-2.59 0c-2.59 0-5.69-.517-6.21-.517 0 1.03-.517 7.24-.517 7.76m-9.31-4.14c.517.517 1.55.517 4.14.517 2.07 0 3.1 0 3.1-1.55 0-1.55-2.07-2.59-3.62-2.59-2.07 0-3.62 1.55-3.62 3.62 0 2.07 1.55 4.14 3.62 4.14 1.55 0 3.62-1.03 3.62-1.55m-15.5-11.9c-.517 3.62-1.03 6.72-1.03 10.3 0 2.07 1.55 3.1 3.62 3.1s3.62-1.55 3.62-3.62c0-2.07-1.55-3.62-3.62-3.62-1.55 0-3.1.517-3.62 1.03m-2.6-6.72c0 2.59-.517 10.3-.517 12.9m-3.12-12.9c0 2.59-.517 10.3-.517 12.9m-3.12-7.24c0 2.07-.517 5.17-.517 7.24m.517-9.31.517-.517m-10.4 9.83c0-3.62.517-9.83.517-12.9 5.69 0 6.21 0 6.21.517m-6.21 5.69h5.69"/></g></svg>
