<?xml version="1.0"?>
<svg version="1.1" width="99" height="99" xmlns="http://www.w3.org/2000/svg">
 <defs><linearGradient id="r" x1=".1" x2=".9"><stop stop-color="#e40303"/><stop offset=".2" stop-color="#ad5d00"/><stop offset=".4" stop-color="#7d7400"/><stop offset=".6" stop-color="#008426"/><stop offset=".8" stop-color="#002de0"/><stop offset="1" stop-color="#8e03a4"/></linearGradient></defs>
 <path d="m88 80.9-19-8.19 5.15 20-14.8-14.5-2.43 20.5-8.52-18.8-9.69 18.3-1.14-20.7-15.6 13.5 6.4-19.7-19.5 6.98 13.1-16-20.7-.528 18-10.2-19.1-7.96 20.5-3.04-14.9-14.3 20.2 4.56-8.74-18.7 17.2 11.5-1.38-20.6 11.8 17 6.17-19.7 4.91 20.1 12.9-16.2-2.68 20.5 17.9-10.4-9.9 18.2 20.4-3.28-15.8 13.4 20.2 4.32-19.6 6.74 17.3 11.3-20.7-.774z" fill="url(#r)" stroke="#fff"/>
</svg>
